<svg width="100" height="15" viewBox="0 0 100 15" fill="none" xmlns="http://www.w3.org/2000/svg">
<path d="M4.8 14V1.96H0.5V-9.53674e-07H11.26V1.96H6.96V14H4.8ZM14.5995 14.28C13.8929 14.28 13.2595 14.16 12.6995 13.92C12.1529 13.68 11.7129 13.3267 11.3795 12.86C11.0595 12.3933 10.8995 11.8267 10.8995 11.16C10.8995 10.48 11.0595 9.92 11.3795 9.48C11.7129 9.02667 12.1595 8.68667 12.7195 8.46C13.2929 8.23333 13.9395 8.12 14.6595 8.12H17.6595V7.48C17.6595 6.90667 17.4862 6.44667 17.1395 6.1C16.7929 5.75333 16.2595 5.58 15.5395 5.58C14.8329 5.58 14.2929 5.74667 13.9195 6.08C13.5462 6.41333 13.2995 6.84667 13.1795 7.38L11.2595 6.76C11.4195 6.22667 11.6729 5.74667 12.0195 5.32C12.3795 4.88 12.8529 4.52667 13.4395 4.26C14.0262 3.99333 14.7329 3.86 15.5595 3.86C16.8395 3.86 17.8462 4.18667 18.5795 4.84C19.3129 5.49333 19.6795 6.42 19.6795 7.62V11.68C19.6795 12.08 19.8662 12.28 20.2395 12.28H21.0795V14H19.5395C19.0729 14 18.6929 13.88 18.3995 13.64C18.1062 13.4 17.9595 13.0733 17.9595 12.66V12.6H17.6595C17.5529 12.8 17.3929 13.0333 17.1795 13.3C16.9662 13.5667 16.6529 13.8 16.2395 14C15.8262 14.1867 15.2795 14.28 14.5995 14.28ZM14.8995 12.58C15.7262 12.58 16.3929 12.3467 16.8995 11.88C17.4062 11.4 17.6595 10.7467 17.6595 9.92V9.72H14.7795C14.2329 9.72 13.7929 9.84 13.4595 10.08C13.1262 10.3067 12.9595 10.6467 12.9595 11.1C12.9595 11.5533 13.1329 11.9133 13.4795 12.18C13.8262 12.4467 14.2995 12.58 14.8995 12.58ZM23.0825 14V-9.53674e-07H25.1425V14H23.0825ZM32.7197 14.28C31.7197 14.28 30.8464 14.0733 30.0997 13.66C29.353 13.2333 28.7664 12.64 28.3397 11.88C27.9264 11.1067 27.7197 10.2133 27.7197 9.2V8.96C27.7197 7.93333 27.9264 7.04 28.3397 6.28C28.753 5.50667 29.3264 4.91333 30.0597 4.5C30.8064 4.07333 31.6664 3.86 32.6397 3.86C33.5864 3.86 34.413 4.07333 35.1197 4.5C35.8397 4.91333 36.3997 5.49333 36.7997 6.24C37.1997 6.98667 37.3997 7.86 37.3997 8.86V9.64H29.8197C29.8464 10.5067 30.133 11.2 30.6797 11.72C31.2397 12.2267 31.933 12.48 32.7597 12.48C33.533 12.48 34.113 12.3067 34.4997 11.96C34.8997 11.6133 35.2064 11.2133 35.4197 10.76L37.1197 11.64C36.933 12.0133 36.6597 12.4067 36.2997 12.82C35.953 13.2333 35.493 13.58 34.9197 13.86C34.3464 14.14 33.613 14.28 32.7197 14.28ZM29.8397 8.06H35.2997C35.2464 7.31333 34.9797 6.73333 34.4997 6.32C34.0197 5.89333 33.393 5.68 32.6197 5.68C31.8464 5.68 31.213 5.89333 30.7197 6.32C30.2397 6.73333 29.9464 7.31333 29.8397 8.06ZM39.8794 14V4.14H41.8994V5.62H42.2194C42.406 5.22 42.7394 4.84667 43.2194 4.5C43.6994 4.15333 44.4127 3.98 45.3594 3.98C46.106 3.98 46.766 4.14667 47.3394 4.48C47.926 4.81333 48.386 5.28667 48.7194 5.9C49.0527 6.5 49.2194 7.22667 49.2194 8.08V14H47.1594V8.24C47.1594 7.38667 46.946 6.76 46.5194 6.36C46.0927 5.94667 45.506 5.74 44.7594 5.74C43.906 5.74 43.2194 6.02 42.6994 6.58C42.1927 7.14 41.9394 7.95333 41.9394 9.02V14H39.8794ZM55.6106 14C55.0106 14 54.5306 13.82 54.1706 13.46C53.824 13.1 53.6506 12.62 53.6506 12.02V5.88H50.9306V4.14H53.6506V0.88H55.7106V4.14H58.6506V5.88H55.7106V11.66C55.7106 12.06 55.8973 12.26 56.2706 12.26H58.3306V14H55.6106ZM61.0108 14V-9.53674e-07H63.1708V6H69.0508V-9.53674e-07H71.2108V14H69.0508V7.96H63.1708V14H61.0108ZM74.1958 14V4.14H76.2558V14H74.1958ZM75.2358 2.8C74.8358 2.8 74.4958 2.67333 74.2158 2.42C73.9491 2.15333 73.8158 1.81333 73.8158 1.4C73.8158 0.986666 73.9491 0.653333 74.2158 0.4C74.4958 0.133333 74.8358 -9.53674e-07 75.2358 -9.53674e-07C75.6491 -9.53674e-07 75.9891 0.133333 76.2558 0.4C76.5224 0.653333 76.6558 0.986666 76.6558 1.4C76.6558 1.81333 76.5224 2.15333 76.2558 2.42C75.9891 2.67333 75.6491 2.8 75.2358 2.8ZM81.593 14L78.273 4.14H80.453L83.073 12.48H83.393L86.013 4.14H88.193L84.873 14H81.593ZM94.3603 14.28C93.3603 14.28 92.487 14.0733 91.7403 13.66C90.9936 13.2333 90.407 12.64 89.9803 11.88C89.567 11.1067 89.3603 10.2133 89.3603 9.2V8.96C89.3603 7.93333 89.567 7.04 89.9803 6.28C90.3936 5.50667 90.967 4.91333 91.7003 4.5C92.447 4.07333 93.307 3.86 94.2803 3.86C95.227 3.86 96.0536 4.07333 96.7603 4.5C97.4803 4.91333 98.0403 5.49333 98.4403 6.24C98.8403 6.98667 99.0403 7.86 99.0403 8.86V9.64H91.4603C91.487 10.5067 91.7736 11.2 92.3203 11.72C92.8803 12.2267 93.5736 12.48 94.4003 12.48C95.1736 12.48 95.7536 12.3067 96.1403 11.96C96.5403 11.6133 96.847 11.2133 97.0603 10.76L98.7603 11.64C98.5736 12.0133 98.3003 12.4067 97.9403 12.82C97.5936 13.2333 97.1336 13.58 96.5603 13.86C95.987 14.14 95.2536 14.28 94.3603 14.28ZM91.4803 8.06H96.9403C96.887 7.31333 96.6203 6.73333 96.1403 6.32C95.6603 5.89333 95.0336 5.68 94.2603 5.68C93.487 5.68 92.8536 5.89333 92.3603 6.32C91.8803 6.73333 91.587 7.31333 91.4803 8.06Z" fill="#3778FA"/>
</svg>
